{"title":"Penny Dreadful S01E03 HDTV x264 AAC [GWC].mp4","uid":10226757,"size":125485994,"categoryP":"video","categoryS":"tv_shows","magnet":"?xt=urn:btih:059ed324ba76b9aafef7fc3d1af79a69523bad01&amp;dn=Penny+Dreadful+S01E03+HDTV+x264+AAC+%5BGWC%5D.mp4&amp;tr=udp%3A%2F%2Ftracker.openbittorrent.com%3A80&amp;tr=udp%3A%2F%2Fopen.demonii.com%3A1337&amp;tr=udp%3A%2F%2Ftracker.coppersurfer.tk%3A6969&amp;tr=udp%3A%2F%2Fexodus.desync.com%3A6969","seeders":2,"leechers":0,"uploader":"canc232","files":1,"time":1401095988,"description":"Penny Dreadful S01E03 HDTV x264 AAC [GWC]\n\n\nSTORYLINE :\nExplorer Sir Malcolm Murray, American gunslinger Ethan Chandler, and others unite to combat supernatural threats in Victorian London.\n\n\nSCREENS : &lt;a href=&quot;\nhttp://i.imgur.com/33E9Oyd.jpg&quot; rel=&quot;nofollow&quot; target=&quot;_NEW&quot;&gt;\nhttp://i.imgur.com/33E9Oyd.jpg&lt;/a&gt; &lt;a href=&quot;\nhttp://i.imgur.com/XWvLgqM.jpg&quot; rel=&quot;nofollow&quot; target=&quot;_NEW&quot;&gt;\nhttp://i.imgur.com/XWvLgqM.jpg&lt;/a&gt; &lt;a href=&quot;\nhttp://i.imgur.com/fbdhQ7F.jpg&quot; rel=&quot;nofollow&quot; target=&quot;_NEW&quot;&gt;\nhttp://i.imgur.com/fbdhQ7F.jpg&lt;/a&gt;\n\n\nMEDIA INFO:\nGeneral \nFormat : MPEG-4 \nFormat profile : Base Media \nFile size : 120 MiB \nDuration : 47mn 46s \nOverall bit rate mode : Variable \nOverall bit rate : 350 Kbps \n\nVideo \nFormat : AVC \nFormat profile : &lt;a class=&quot;__cf_email__&quot; href=&quot;/cdn-cgi/l/email-protection&quot; data-cfemail=&quot;1c54757b745c502f322c&quot;&gt;[email&amp;#160;protected]&lt;/a&gt;&lt;script data-cfhash='f9e31' type=&quot;text/javascript&quot;&gt;\n/* &lt;![CDATA[ */!function(){try{var t=&quot;currentScript&quot;in document?document.currentScript:function(){for(var t=document.getElementsByTagName(&quot;script&quot;),e=t.length;e--;)if(t[e].getAttribute(&quot;data-cfhash&quot;))return t[e]}();if(t&amp;&amp;t.previousSibling){var e,r,n,i,c=t.previousSibling,a=c.getAttribute(&quot;data-cfemail&quot;);if(a){for(e=&quot;&quot;,r=parseInt(a.substr(0,2),16),n=2;a.length-n;n+=2)i=parseInt(a.substr(n,2),16)^r,e+=String.fromCharCode(i);e=document.createTextNode(e),c.parentNode.replaceChild(e,c)}t.parentNode.removeChild(t);}}catch(u){}}()/* ]]&gt; */&lt;/script&gt; \nFormat settings, CABAC : Yes \nFormat settings, ReFrames : 4 frames \nDuration : 47mn 46s \nBit rate : 283 Kbps \nMaximum bit rate : 1 599 Kbps \nWidth : 720 pixels \nHeight : 404 pixels \nDisplay aspect ratio : 16:9 \nFrame rate : 23.976 fps \nStream size : 96.7 MiB (81%) \nTitle : Penny Dreadful S01E03 HDTV x264 AAC [GWC] \nWriting library : x264 core\n\nAudio \nFormat : AAC \nFormat profile : HE-AAC / LC \nDuration : 47mn 46s \nBit rate mode : Variable \nChannel(s) : 2 channels \nSampling rate : 48.0 KHz / 24.0 KHz \nStream size : 21.9 MiB (18%) \nLanguage : English \n","torrent":{"xt":"urn:btih:059ed324ba76b9aafef7fc3d1af79a69523bad01","amp;dn":"Penny+Dreadful+S01E03+HDTV+x264+AAC+%5BGWC%5D.mp4","amp;tr":["udp%3A%2F%2Ftracker.openbittorrent.com%3A80","udp%3A%2F%2Fopen.demonii.com%3A1337","udp%3A%2F%2Ftracker.coppersurfer.tk%3A6969","udp%3A%2F%2Fexodus.desync.com%3A6969"],"infoHash":"059ed324ba76b9aafef7fc3d1af79a69523bad01","infoHashBuffer":{"type":"Buffer","data":[5,158,211,36,186,118,185,170,254,247,252,61,26,247,154,105,82,59,173,1]},"announce":[],"urlList":[]}}